<?xml version="1.0" encoding="utf-8"?>
<!-- Generator: Adobe Illustrator 21.1.0, SVG Export Plug-In . SVG Version: 6.00 Build 0)  -->
<svg version="1.1" id="Layer_1" xmlns="http://www.w3.org/2000/svg" xmlns:xlink="http://www.w3.org/1999/xlink" x="0px" y="0px"
	 width="72px" height="72px" viewBox="0 0 72 72" style="enable-background:new 0 0 72 72;" xml:space="preserve">
<style type="text/css">
	.st0{fill:#FFFFFF;}
	.st1{fill:#00BBE3;}
</style>
<g>
	<path class="st0" d="M64.3,27L38.6,1.1C37.9,0.4,36.9,0,36,0s-1.9,0.4-2.6,1.1L7.8,27C5.4,29.4,4,32.6,4,36c0,3.4,1.3,6.6,3.7,9
		l25.7,25.9c0.7,0.7,1.6,1.1,2.6,1.1c1,0,2-0.4,2.6-1.2L64.2,45c2.4-2.4,3.7-5.6,3.7-9C68,32.6,66.6,29.4,64.3,27z"/>
	<path class="st1" d="M62.9,28.3L37.2,2.4c-0.7-0.7-1.9-0.7-2.5,0L9.1,28.3c-2,2-3.2,4.8-3.2,7.7c0,2.9,1.1,5.6,3.2,7.7l25.7,25.9
		c0.4,0.4,0.8,0.6,1.2,0.6s0.9-0.2,1.2-0.6l25.7-25.9c2-2,3.2-4.8,3.2-7.7S65,30.4,62.9,28.3 M10.3,29.6L36,3.6l5.5,5.6l0,0l0.3,6.5
		l-13.6-3.7l6.8,9.7H18.3L29,30.4L7.7,36C7.7,33.6,8.6,31.4,10.3,29.6 M41.5,62.8L36,68.3L10.3,42.4c-1.7-1.7-2.6-4-2.6-6.3L29,41.6
		l-10.8,8.8H35l-6.8,9.7l13.6-3.7L41.5,62.8L41.5,62.8z M49.4,25.5c0.9-0.4,2-0.6,3.2-0.6v21.7c-0.9,0.4-2,0.6-3.2,0.6v-9.7H39.2
		v9.1c-0.9,0.4-2,0.6-3.2,0.6V25.5c0.9-0.4,2-0.6,3.2-0.6v9.6h10.2V25.5z"/>
</g>
</svg>
